<svg width="40" height="40" viewBox="0 0 40 40" xmlns="http://www.w3.org/2000/svg">
   <path stroke="currentColor" fill="currentColor" d="m39.33572,16.92637l-0.20123,-0.85388l-18.5593,0l0,7.85502l11.08892,0c-1.15127,5.467 -6.49362,8.34474 -10.85742,8.34474c-3.17513,0 -6.52211,-1.33559 -8.7374,-3.48232a12.47259,12.47259 0 0 1 -3.72183,-8.80418c0,-3.30869 1.48695,-6.61827 3.6506,-8.79528s5.43138,-3.39506 8.68041,-3.39506c3.72094,0 6.38766,1.97578 7.3849,2.87685l5.58186,-5.55247c-1.63743,-1.43887 -6.13568,-5.06454 -13.14661,-5.06454l0,0c-5.40912,0 -10.59564,2.07194 -14.38693,5.85075c-3.74142,3.72094 -5.67802,9.10157 -5.67802,14.09399s1.83242,10.10415 5.45809,13.85447c3.87409,3.99963 9.36067,6.09027 15.0102,6.09027c5.14022,0 10.01244,-2.01406 13.48496,-5.66822c3.41376,-3.59718 5.1794,-8.57446 5.1794,-13.79215c0,-2.19659 -0.22082,-3.50101 -0.23061,-3.558z"/>
</svg>